<svg width="96" height="96" xmlns="http://www.w3.org/2000/svg" xmlns:xlink="http://www.w3.org/1999/xlink" xml:space="preserve" overflow="hidden"><defs><clipPath id="clip0"><rect x="592" y="312" width="96" height="96"/></clipPath></defs><g clip-path="url(#clip0)" transform="translate(-592 -312)"><path d="M599.055 363.027 673.814 363.027 664.919 371.922C663.759 373.082 663.759 374.962 664.919 376.122 666.079 377.282 667.959 377.282 669.119 376.122L683.109 362.128C684.269 361.023 684.314 359.188 683.209 358.028 683.177 357.994 683.143 357.961 683.109 357.928L669.116 343.938C668.011 342.778 666.176 342.733 665.016 343.838 664.982 343.871 664.948 343.904 664.916 343.938 663.756 345.043 663.711 346.878 664.816 348.038 664.849 348.072 664.882 348.105 664.916 348.138L673.811 357.038 599.055 357.038C597.398 357.038 596.055 358.381 596.055 360.038 596.055 361.695 597.398 363.038 599.055 363.038Z" fill="#FFFFFF"/></g></svg>