<svg width="96" height="96" xmlns="http://www.w3.org/2000/svg" xmlns:xlink="http://www.w3.org/1999/xlink" xml:space="preserve" overflow="hidden"><defs><clipPath id="clip0"><rect x="951" y="154" width="96" height="96"/></clipPath></defs><g clip-path="url(#clip0)" transform="translate(-951 -154)"><path d="M1040 199 965.2 199 974.1 190.1C975.3 188.9 975.3 187 974.1 185.9 972.9 184.7 971 184.7 969.9 185.9L955.9 199.9C954.7 201.1 954.7 203 955.9 204.1L969.9 218.1C970.5 218.7 971.3 219 972 219 972.7 219 973.5 218.7 974.1 218.1 975.3 216.9 975.3 215 974.1 213.9L965.2 205 1040 205C1041.7 205 1043 203.7 1043 202 1043 200.3 1041.7 199 1040 199Z" fill="#FFFFFF"/></g></svg>